<svg width="256" height="256" viewBox="0 0 256 256" fill="none" xmlns="http://www.w3.org/2000/svg">
<path d="M114 122C119.523 122 124 117.523 124 112C124 106.477 119.523 102 114 102V112V122ZM45 102H35V122H45V112V102ZM114 112V102H45V112V122H114V112Z" fill="black"/>
<path d="M104 112C104 117.523 108.477 122 114 122C119.523 122 124 117.523 124 112H114H104ZM124 43V33H104V43H114H124ZM114 112H124V43H114H104V112H114Z" fill="black"/>
<path d="M145 136C139.477 136 135 140.477 135 146C135 151.523 139.477 156 145 156V146V136ZM214 156H224V136H214V146V156ZM145 146V156H214V146V136H145V146Z" fill="black"/>
<path d="M155 146C155 140.477 150.523 136 145 136C139.477 136 135 140.477 135 146H145H155ZM135 215V225H155V215H145H135ZM145 146H135V215H145H155V146H145Z" fill="black"/>
</svg>
