<svg width="256" height="256" viewBox="0 0 256 256" fill="none" xmlns="http://www.w3.org/2000/svg">
<path d="M45 33C39.4772 33 35 37.4772 35 43C35 48.5228 39.4772 53 45 53V43V33ZM114 53H124V33H114V43V53ZM45 43V53H114V43V33H45V43Z" fill="black"/>
<path d="M55 43C55 37.4772 50.5228 33 45 33C39.4772 33 35 37.4772 35 43H45H55ZM35 112L35 122H55L55 112H45H35ZM45 43H35V112H45H55V43H45Z" fill="black"/>
<path d="M214 225C219.523 225 224 220.523 224 215C224 209.477 219.523 205 214 205V215V225ZM145 205H135V225H145V215V205ZM214 215V205L145 205V215V225L214 225V215Z" fill="black"/>
<path d="M204 215C204 220.523 208.477 225 214 225C219.523 225 224 220.523 224 215H214H204ZM224 146L224 136H204L204 146H214H224ZM214 215H224V146H214H204V215H214Z" fill="black"/>
</svg>
