<svg width="24" height="24" viewBox="0 0 24 24" fill="none" xmlns="http://www.w3.org/2000/svg">
    <path d="M18.25 2.5C19.98 2.5 21.4 3.85 21.5 5.56L21.5 5.75V17.75C21.5 19.55 20.05 21 18.25 21H6.25C4.52 21 3.1 19.65 3 17.94L3 17.75V5.75C3 3.95 4.46 2.5 6.25 2.5H18.25ZM11.5 9.5H4.5V17.75L4.51 17.91C4.59 18.8 5.34 19.5 6.25 19.5H11.5V9.5ZM20 15.5H13V19.5H18.25C19.22 19.5 20 18.72 20 17.75V15.5ZM18.25 4H13V14H20V5.75L19.99 5.59C19.91 4.7 19.16 4 18.25 4ZM11.5 4H6.25L6.11 4C5.21 4.08 4.5 4.83 4.5 5.75V8H11.5V4Z" fill="#000000"/>
</svg>
