<svg width="145" height="173" viewBox="0 0 145 173" fill="none" xmlns="http://www.w3.org/2000/svg">
<path d="M142.568 0L144.473 40.3711H139.648C138.717 33.2617 137.448 28.1836 135.84 25.1367C133.216 20.2279 129.704 16.6309 125.303 14.3457C120.986 11.9759 115.273 10.791 108.164 10.791H83.916V142.314C83.916 152.894 85.0586 159.495 87.3438 162.119C90.5599 165.674 95.5111 167.451 102.197 167.451H108.164V172.148H35.166V167.451H41.2598C48.5384 167.451 53.7012 165.251 56.748 160.85C58.61 158.141 59.541 151.963 59.541 142.314V10.791H38.8477C30.8073 10.791 25.0944 11.3835 21.709 12.5684C17.3079 14.1764 13.5417 17.2656 10.4102 21.8359C7.27865 26.4062 5.41667 32.5846 4.82422 40.3711H0L2.03125 0H142.568Z" fill="white"/>
</svg>
